<svg width="128" height="128" viewBox="0 0 128 128" fill="none" xmlns="http://www.w3.org/2000/svg">
<g opacity="0.5">
<path opacity="0.2" d="M95 118C94.9984 119.591 91.1521 121.117 84.3072 122.242C77.4623 123.367 68.1793 123.999 58.5 123.999C48.8207 123.999 39.5377 123.367 32.6928 122.242C25.8479 121.117 22.0017 119.591 22 118C21.9992 117.212 22.9427 116.432 24.7766 115.704C26.6105 114.975 29.299 114.314 32.6884 113.757C36.0778 113.199 40.1018 112.757 44.5306 112.456C48.9594 112.154 53.7062 111.999 58.5 111.999C63.2938 111.999 68.0406 112.154 72.4694 112.456C76.8982 112.757 80.9222 113.199 84.3116 113.757C87.701 114.314 90.3895 114.975 92.2234 115.704C94.0573 116.432 95.0008 117.212 95 118Z" fill="url(#paint0_radial_34:229)"/>
<g opacity="0.4">
<path opacity="0.4" d="M94.3364 116H84.9058V121H94.3364V116Z" fill="url(#paint1_radial_34:229)"/>
<path opacity="0.4" d="M22.6636 121H32.0943V116H22.6636V121Z" fill="url(#paint2_radial_34:229)"/>
<path opacity="0.4" d="M84.9058 116H32.0943V121H84.9058V116Z" fill="url(#paint3_linear_34:229)"/>
</g>
<g opacity="0.4">
<path opacity="0.4" d="M94.3364 116H84.9058V121H94.3364V116Z" fill="url(#paint4_radial_34:229)"/>
<path opacity="0.4" d="M22.6636 121H32.0943V116H22.6636V121Z" fill="url(#paint5_radial_34:229)"/>
<path opacity="0.4" d="M84.9058 116H32.0943V121H84.9058V116Z" fill="url(#paint6_linear_34:229)"/>
</g>
<g opacity="0.4">
<path opacity="0.4" d="M94.3364 116H84.9058V121H94.3364V116Z" fill="url(#paint7_radial_34:229)"/>
<path opacity="0.4" d="M22.6636 121H32.0943V116H22.6636V121Z" fill="url(#paint8_radial_34:229)"/>
<path opacity="0.4" d="M84.9058 116H32.0943V121H84.9058V116Z" fill="url(#paint9_linear_34:229)"/>
</g>
</g>
<rect width="67.2" height="38.4" rx="5" transform="matrix(-0.965926 0.258819 0.258819 0.965926 84.8182 64.4249)" fill="#FFDC82"/>
<rect x="0.176777" y="-0.306186" width="67.7" height="38.9" rx="5.25" transform="matrix(-0.965926 0.258819 0.258819 0.965926 85.245 64.3687)" stroke="#612F00" stroke-opacity="0.2" stroke-width="0.5"/>
<rect opacity="0.3" x="-0.353553" y="0.612372" width="66.2" height="37.4" rx="4.5" transform="matrix(-0.965926 0.258819 0.258819 0.965926 83.9646 64.5372)" stroke="url(#paint10_linear_34:229)" stroke-linecap="round" stroke-linejoin="round"/>
<rect x="0.353553" y="-0.612372" width="68.2" height="39.4" rx="5.5" transform="matrix(-0.965926 0.258819 0.258819 0.965926 85.6717 64.3125)" stroke="#FF7A00" stroke-opacity="0.5"/>
<rect width="38.4" height="76.8" rx="5" transform="matrix(-0.965926 0.258819 0.258819 0.965926 74.8796 27.3333)" fill="#FFBA07"/>
<rect x="0.176777" y="-0.306186" width="38.9" height="77.3" rx="5.25" transform="matrix(-0.965926 0.258819 0.258819 0.965926 75.3063 27.2771)" stroke="#612F00" stroke-opacity="0.2" stroke-width="0.5"/>
<rect opacity="0.3" x="-0.353553" y="0.612372" width="37.4" height="75.8" rx="4.5" transform="matrix(-0.965926 0.258819 0.258819 0.965926 74.026 27.4457)" stroke="url(#paint11_linear_34:229)" stroke-linecap="round" stroke-linejoin="round"/>
<rect x="0.353553" y="-0.612372" width="39.4" height="77.8" rx="5.5" transform="matrix(-0.965926 0.258819 0.258819 0.965926 75.7331 27.2209)" stroke="#B65700" stroke-opacity="0.5"/>
<rect width="67.2" height="38.4" rx="5" transform="matrix(-0.965926 0.258819 0.258819 0.965926 97.7289 1.33356)" fill="#FF7E07"/>
<rect x="0.176777" y="-0.306186" width="67.7" height="38.9" rx="5.25" transform="matrix(-0.965926 0.258819 0.258819 0.965926 98.1557 1.27737)" stroke="#612F00" stroke-opacity="0.2" stroke-width="0.5"/>
<rect opacity="0.3" x="-0.353553" y="0.612372" width="66.2" height="37.4" rx="4.5" transform="matrix(-0.965926 0.258819 0.258819 0.965926 96.8753 1.44593)" stroke="url(#paint12_linear_34:229)" stroke-linecap="round" stroke-linejoin="round"/>
<rect x="0.353553" y="-0.612372" width="68.2" height="39.4" rx="5.5" transform="matrix(-0.965926 0.258819 0.258819 0.965926 98.5824 1.22118)" stroke="#9F6000" stroke-opacity="0.9"/>
<rect width="38.4" height="75.84" rx="5" transform="matrix(-0.965926 0.258819 0.258819 0.965926 69.9102 8.78758)" fill="#FFBA07"/>
<rect x="0.176777" y="-0.306186" width="38.9" height="76.34" rx="5.25" transform="matrix(-0.965926 0.258819 0.258819 0.965926 70.337 8.7314)" stroke="#612F00" stroke-opacity="0.2" stroke-width="0.5"/>
<rect opacity="0.3" x="-0.353553" y="0.612372" width="37.4" height="74.84" rx="4.5" transform="matrix(-0.965926 0.258819 0.258819 0.965926 69.0567 8.89995)" stroke="url(#paint13_linear_34:229)" stroke-linecap="round" stroke-linejoin="round"/>
<rect x="0.353553" y="-0.612372" width="39.4" height="76.84" rx="5.5" transform="matrix(-0.965926 0.258819 0.258819 0.965926 70.7638 8.67521)" stroke="#B65700" stroke-opacity="0.5"/>
<rect width="38.4" height="56.64" rx="5" transform="matrix(-0.965926 0.258819 0.258819 0.965926 74.8796 27.3333)" fill="#FFBA07"/>
<rect x="0.176777" y="-0.306186" width="38.9" height="57.14" rx="5.25" transform="matrix(-0.965926 0.258819 0.258819 0.965926 75.3063 27.2771)" stroke="#612F00" stroke-opacity="0.2" stroke-width="0.5"/>
<rect opacity="0.3" x="-0.353553" y="0.612372" width="37.4" height="55.64" rx="4.5" transform="matrix(-0.965926 0.258819 0.258819 0.965926 74.026 27.4457)" stroke="url(#paint14_linear_34:229)" stroke-linecap="round" stroke-linejoin="round"/>
<rect x="0.353553" y="-0.612372" width="39.4" height="57.64" rx="5.5" transform="matrix(-0.965926 0.258819 0.258819 0.965926 75.7331 27.2209)" stroke="#B65700" stroke-opacity="0.5"/>
<defs>
<radialGradient id="paint0_radial_34:229" cx="0" cy="0" r="1" gradientUnits="userSpaceOnUse" gradientTransform="translate(58.5 118) scale(36.5 6)">
<stop/>
<stop offset="1" stop-opacity="0"/>
</radialGradient>
<radialGradient id="paint1_radial_34:229" cx="0" cy="0" r="1" gradientUnits="userSpaceOnUse" gradientTransform="translate(84.8925 118.5) scale(9.44846 2.5)">
<stop stop-color="#181818"/>
<stop offset="1" stop-color="#181818" stop-opacity="0"/>
</radialGradient>
<radialGradient id="paint2_radial_34:229" cx="0" cy="0" r="1" gradientUnits="userSpaceOnUse" gradientTransform="translate(32.1075 118.5) rotate(180) scale(9.44846 2.5)">
<stop stop-color="#181818"/>
<stop offset="1" stop-color="#181818" stop-opacity="0"/>
</radialGradient>
<linearGradient id="paint3_linear_34:229" x1="60.4957" y1="121.02" x2="60.4957" y2="116" gradientUnits="userSpaceOnUse">
<stop stop-color="#181818" stop-opacity="0"/>
<stop offset="0.5" stop-color="#181818"/>
<stop offset="1" stop-color="#181818" stop-opacity="0"/>
</linearGradient>
<radialGradient id="paint4_radial_34:229" cx="0" cy="0" r="1" gradientUnits="userSpaceOnUse" gradientTransform="translate(84.8925 118.5) scale(9.44846 2.5)">
<stop stop-color="#181818"/>
<stop offset="1" stop-color="#181818" stop-opacity="0"/>
</radialGradient>
<radialGradient id="paint5_radial_34:229" cx="0" cy="0" r="1" gradientUnits="userSpaceOnUse" gradientTransform="translate(32.1075 118.5) rotate(180) scale(9.44846 2.5)">
<stop stop-color="#181818"/>
<stop offset="1" stop-color="#181818" stop-opacity="0"/>
</radialGradient>
<linearGradient id="paint6_linear_34:229" x1="60.4957" y1="121.02" x2="60.4957" y2="116" gradientUnits="userSpaceOnUse">
<stop stop-color="#181818" stop-opacity="0"/>
<stop offset="0.5" stop-color="#181818"/>
<stop offset="1" stop-color="#181818" stop-opacity="0"/>
</linearGradient>
<radialGradient id="paint7_radial_34:229" cx="0" cy="0" r="1" gradientUnits="userSpaceOnUse" gradientTransform="translate(84.8925 118.5) scale(9.44846 2.5)">
<stop stop-color="#181818"/>
<stop offset="1" stop-color="#181818" stop-opacity="0"/>
</radialGradient>
<radialGradient id="paint8_radial_34:229" cx="0" cy="0" r="1" gradientUnits="userSpaceOnUse" gradientTransform="translate(32.1075 118.5) rotate(180) scale(9.44846 2.5)">
<stop stop-color="#181818"/>
<stop offset="1" stop-color="#181818" stop-opacity="0"/>
</radialGradient>
<linearGradient id="paint9_linear_34:229" x1="60.4957" y1="121.02" x2="60.4957" y2="116" gradientUnits="userSpaceOnUse">
<stop stop-color="#181818" stop-opacity="0"/>
<stop offset="0.5" stop-color="#181818"/>
<stop offset="1" stop-color="#181818" stop-opacity="0"/>
</linearGradient>
<linearGradient id="paint10_linear_34:229" x1="33.6" y1="-0.51892" x2="33.6" y2="38.9189" gradientUnits="userSpaceOnUse">
<stop stop-color="white"/>
<stop offset="0.0631645" stop-color="white" stop-opacity="0.235294"/>
<stop offset="0.950563" stop-color="white" stop-opacity="0.156863"/>
<stop offset="1" stop-color="white" stop-opacity="0.392157"/>
</linearGradient>
<linearGradient id="paint11_linear_34:229" x1="19.2" y1="-1.03784" x2="19.2" y2="77.8379" gradientUnits="userSpaceOnUse">
<stop stop-color="white"/>
<stop offset="0.0631645" stop-color="white" stop-opacity="0.235294"/>
<stop offset="0.950563" stop-color="white" stop-opacity="0.156863"/>
<stop offset="1" stop-color="white" stop-opacity="0.392157"/>
</linearGradient>
<linearGradient id="paint12_linear_34:229" x1="33.6" y1="-0.51892" x2="33.6" y2="38.9189" gradientUnits="userSpaceOnUse">
<stop stop-color="white"/>
<stop offset="0.0631645" stop-color="white" stop-opacity="0.235294"/>
<stop offset="0.950563" stop-color="white" stop-opacity="0.156863"/>
<stop offset="1" stop-color="white" stop-opacity="0.392157"/>
</linearGradient>
<linearGradient id="paint13_linear_34:229" x1="19.2" y1="-1.02487" x2="19.2" y2="76.8649" gradientUnits="userSpaceOnUse">
<stop stop-color="white"/>
<stop offset="0.0631645" stop-color="white" stop-opacity="0.235294"/>
<stop offset="0.950563" stop-color="white" stop-opacity="0.156863"/>
<stop offset="1" stop-color="white" stop-opacity="0.392157"/>
</linearGradient>
<linearGradient id="paint14_linear_34:229" x1="19.2" y1="-0.765407" x2="19.2" y2="57.4054" gradientUnits="userSpaceOnUse">
<stop stop-color="white"/>
<stop offset="0.0631645" stop-color="white" stop-opacity="0.235294"/>
<stop offset="0.950563" stop-color="white" stop-opacity="0.156863"/>
<stop offset="1" stop-color="white" stop-opacity="0.392157"/>
</linearGradient>
</defs>
</svg>
