<svg width="32" height="32" viewBox="0 0 32 32" fill="none" xmlns="http://www.w3.org/2000/svg">
<g clip-path="url(#clip0_34:166)">
<g opacity="0.6">
<path opacity="0.2" d="M23.75 30.6669C23.7496 31.0205 22.788 31.3596 21.0768 31.6096C19.3656 31.8596 17.0448 32 14.625 32C12.2052 32 9.88443 31.8596 8.1732 31.6096C6.46198 31.3596 5.50041 31.0205 5.5 30.6669C5.4998 30.4918 5.73567 30.3184 6.19415 30.1566C6.65264 29.9948 7.32475 29.8478 8.1721 29.7239C9.01946 29.6001 10.0255 29.5019 11.1327 29.4349C12.2399 29.3678 13.4266 29.3333 14.625 29.3333C15.8234 29.3333 17.0101 29.3678 18.1173 29.4349C19.2245 29.5019 20.2305 29.6001 21.0779 29.7239C21.9253 29.8478 22.5974 29.9948 23.0558 30.1566C23.5143 30.3184 23.7502 30.4918 23.75 30.6669Z" fill="url(#paint0_radial_34:166)"/>
<g opacity="0.4">
<path opacity="0.4" d="M23.5841 30.2225H21.2264V31.3336H23.5841V30.2225Z" fill="url(#paint1_radial_34:166)"/>
<path opacity="0.4" d="M5.66591 31.3336H8.02357V30.2225H5.66591V31.3336Z" fill="url(#paint2_radial_34:166)"/>
<path opacity="0.4" d="M21.2264 30.2225H8.02357V31.3336H21.2264V30.2225Z" fill="url(#paint3_linear_34:166)"/>
</g>
<g opacity="0.4">
<path opacity="0.4" d="M23.5841 30.2225H21.2264V31.3336H23.5841V30.2225Z" fill="url(#paint4_radial_34:166)"/>
<path opacity="0.4" d="M5.66591 31.3336H8.02357V30.2225H5.66591V31.3336Z" fill="url(#paint5_radial_34:166)"/>
<path opacity="0.4" d="M21.2264 30.2225H8.02357V31.3336H21.2264V30.2225Z" fill="url(#paint6_linear_34:166)"/>
</g>
<g opacity="0.4">
<path opacity="0.4" d="M23.5841 30.2225H21.2264V31.3336H23.5841V30.2225Z" fill="url(#paint7_radial_34:166)"/>
<path opacity="0.4" d="M5.66591 31.3336H8.02357V30.2225H5.66591V31.3336Z" fill="url(#paint8_radial_34:166)"/>
<path opacity="0.4" d="M21.2264 30.2225H8.02357V31.3336H21.2264V30.2225Z" fill="url(#paint9_linear_34:166)"/>
</g>
</g>
<rect width="16.8" height="9.6" rx="2" transform="matrix(-0.965926 0.258819 0.258819 0.965926 21.2046 16.7729)" fill="#FFDC82"/>
<rect x="0.353553" y="-0.612372" width="17.8" height="10.6" rx="2.5" transform="matrix(-0.965926 0.258819 0.258819 0.965926 22.0581 16.6605)" stroke="#612F00" stroke-opacity="0.2"/>
<rect opacity="0.3" x="-0.353553" y="0.612372" width="15.8" height="8.6" rx="1.5" transform="matrix(-0.965926 0.258819 0.258819 0.965926 20.351 16.8852)" stroke="url(#paint10_linear_34:166)" stroke-linecap="round" stroke-linejoin="round"/>
<rect x="0.353553" y="-0.612372" width="17.8" height="10.6" rx="2.5" transform="matrix(-0.965926 0.258819 0.258819 0.965926 22.0581 16.6605)" stroke="#FF7A00" stroke-opacity="0.5"/>
<rect width="9.6" height="19.2" rx="2" transform="matrix(-0.965926 0.258819 0.258819 0.965926 18.7199 7.49997)" fill="#FFBA07" fill-opacity="0.55"/>
<rect x="0.353553" y="-0.612372" width="10.6" height="20.2" rx="2.5" transform="matrix(-0.965926 0.258819 0.258819 0.965926 19.5734 7.3876)" stroke="#612F00" stroke-opacity="0.2"/>
<rect opacity="0.3" x="-0.353553" y="0.612372" width="8.6" height="18.2" rx="1.5" transform="matrix(-0.965926 0.258819 0.258819 0.965926 17.8663 7.61234)" stroke="url(#paint11_linear_34:166)" stroke-linecap="round" stroke-linejoin="round"/>
<rect x="0.353553" y="-0.612372" width="10.6" height="20.2" rx="2.5" transform="matrix(-0.965926 0.258819 0.258819 0.965926 19.5734 7.3876)" stroke="#B65700" stroke-opacity="0.5"/>
<rect width="16.8" height="9.6" rx="2" transform="matrix(-0.965926 0.258819 0.258819 0.965926 24.4322 1.00003)" fill="#FF7E07"/>
<rect x="0.353553" y="-0.612372" width="17.8" height="10.6" rx="2.5" transform="matrix(-0.965926 0.258819 0.258819 0.965926 25.2858 0.887658)" stroke="#612F00" stroke-opacity="0.2"/>
<rect opacity="0.3" x="-0.353553" y="0.612372" width="15.8" height="8.6" rx="1.5" transform="matrix(-0.965926 0.258819 0.258819 0.965926 23.5787 1.1124)" stroke="url(#paint12_linear_34:166)" stroke-linecap="round" stroke-linejoin="round"/>
<rect x="0.353553" y="-0.612372" width="17.8" height="10.6" rx="2.5" transform="matrix(-0.965926 0.258819 0.258819 0.965926 25.2858 0.887658)" stroke="#9F6000" stroke-opacity="0.9"/>
<rect width="9.6" height="18.96" rx="2" transform="matrix(-0.965926 0.258819 0.258819 0.965926 17.4776 2.86356)" fill="#FFBA07"/>
<rect x="0.353553" y="-0.612372" width="10.6" height="19.96" rx="2.5" transform="matrix(-0.965926 0.258819 0.258819 0.965926 18.3311 2.75118)" stroke="#612F00" stroke-opacity="0.2"/>
<rect opacity="0.3" x="-0.353553" y="0.612372" width="8.6" height="17.96" rx="1.5" transform="matrix(-0.965926 0.258819 0.258819 0.965926 16.624 2.97593)" stroke="url(#paint13_linear_34:166)" stroke-linecap="round" stroke-linejoin="round"/>
<rect x="0.353553" y="-0.612372" width="10.6" height="19.96" rx="2.5" transform="matrix(-0.965926 0.258819 0.258819 0.965926 18.3311 2.75118)" stroke="#B65700" stroke-opacity="0.5"/>
<rect width="9.6" height="14.16" rx="2" transform="matrix(-0.965926 0.258819 0.258819 0.965926 18.7199 7.49997)" fill="#FFBA07"/>
<rect x="0.353553" y="-0.612372" width="10.6" height="15.16" rx="2.5" transform="matrix(-0.965926 0.258819 0.258819 0.965926 19.5734 7.3876)" stroke="#612F00" stroke-opacity="0.2"/>
<rect opacity="0.3" x="-0.353553" y="0.612372" width="8.6" height="13.16" rx="1.5" transform="matrix(-0.965926 0.258819 0.258819 0.965926 17.8663 7.61234)" stroke="url(#paint14_linear_34:166)" stroke-linecap="round" stroke-linejoin="round"/>
<rect x="0.353553" y="-0.612372" width="10.6" height="15.16" rx="2.5" transform="matrix(-0.965926 0.258819 0.258819 0.965926 19.5734 7.3876)" stroke="#B65700" stroke-opacity="0.5"/>
</g>
<defs>
<radialGradient id="paint0_radial_34:166" cx="0" cy="0" r="1" gradientUnits="userSpaceOnUse" gradientTransform="translate(14.625 30.6669) scale(9.125 1.33333)">
<stop/>
<stop offset="1" stop-opacity="0"/>
</radialGradient>
<radialGradient id="paint1_radial_34:166" cx="0" cy="0" r="1" gradientUnits="userSpaceOnUse" gradientTransform="translate(21.2231 30.778) scale(2.36212 0.555556)">
<stop stop-color="#181818"/>
<stop offset="1" stop-color="#181818" stop-opacity="0"/>
</radialGradient>
<radialGradient id="paint2_radial_34:166" cx="0" cy="0" r="1" gradientUnits="userSpaceOnUse" gradientTransform="translate(8.02688 30.778) rotate(180) scale(2.36212 0.555556)">
<stop stop-color="#181818"/>
<stop offset="1" stop-color="#181818" stop-opacity="0"/>
</radialGradient>
<linearGradient id="paint3_linear_34:166" x1="15.1239" y1="31.338" x2="15.1239" y2="30.2224" gradientUnits="userSpaceOnUse">
<stop stop-color="#181818" stop-opacity="0"/>
<stop offset="0.5" stop-color="#181818"/>
<stop offset="1" stop-color="#181818" stop-opacity="0"/>
</linearGradient>
<radialGradient id="paint4_radial_34:166" cx="0" cy="0" r="1" gradientUnits="userSpaceOnUse" gradientTransform="translate(21.2231 30.778) scale(2.36212 0.555556)">
<stop stop-color="#181818"/>
<stop offset="1" stop-color="#181818" stop-opacity="0"/>
</radialGradient>
<radialGradient id="paint5_radial_34:166" cx="0" cy="0" r="1" gradientUnits="userSpaceOnUse" gradientTransform="translate(8.02688 30.778) rotate(180) scale(2.36212 0.555556)">
<stop stop-color="#181818"/>
<stop offset="1" stop-color="#181818" stop-opacity="0"/>
</radialGradient>
<linearGradient id="paint6_linear_34:166" x1="15.1239" y1="31.338" x2="15.1239" y2="30.2224" gradientUnits="userSpaceOnUse">
<stop stop-color="#181818" stop-opacity="0"/>
<stop offset="0.5" stop-color="#181818"/>
<stop offset="1" stop-color="#181818" stop-opacity="0"/>
</linearGradient>
<radialGradient id="paint7_radial_34:166" cx="0" cy="0" r="1" gradientUnits="userSpaceOnUse" gradientTransform="translate(21.2231 30.778) scale(2.36212 0.555556)">
<stop stop-color="#181818"/>
<stop offset="1" stop-color="#181818" stop-opacity="0"/>
</radialGradient>
<radialGradient id="paint8_radial_34:166" cx="0" cy="0" r="1" gradientUnits="userSpaceOnUse" gradientTransform="translate(8.02688 30.778) rotate(180) scale(2.36212 0.555556)">
<stop stop-color="#181818"/>
<stop offset="1" stop-color="#181818" stop-opacity="0"/>
</radialGradient>
<linearGradient id="paint9_linear_34:166" x1="15.1239" y1="31.338" x2="15.1239" y2="30.2224" gradientUnits="userSpaceOnUse">
<stop stop-color="#181818" stop-opacity="0"/>
<stop offset="0.5" stop-color="#181818"/>
<stop offset="1" stop-color="#181818" stop-opacity="0"/>
</linearGradient>
<linearGradient id="paint10_linear_34:166" x1="8.4" y1="-0.12973" x2="8.4" y2="9.72973" gradientUnits="userSpaceOnUse">
<stop stop-color="white"/>
<stop offset="0.0631645" stop-color="white" stop-opacity="0.235294"/>
<stop offset="0.950563" stop-color="white" stop-opacity="0.156863"/>
<stop offset="1" stop-color="white" stop-opacity="0.392157"/>
</linearGradient>
<linearGradient id="paint11_linear_34:166" x1="4.8" y1="-0.25946" x2="4.8" y2="19.4595" gradientUnits="userSpaceOnUse">
<stop stop-color="white"/>
<stop offset="0.0631645" stop-color="white" stop-opacity="0.235294"/>
<stop offset="0.950563" stop-color="white" stop-opacity="0.156863"/>
<stop offset="1" stop-color="white" stop-opacity="0.392157"/>
</linearGradient>
<linearGradient id="paint12_linear_34:166" x1="8.4" y1="-0.12973" x2="8.4" y2="9.72973" gradientUnits="userSpaceOnUse">
<stop stop-color="white"/>
<stop offset="0.0631645" stop-color="white" stop-opacity="0.235294"/>
<stop offset="0.950563" stop-color="white" stop-opacity="0.156863"/>
<stop offset="1" stop-color="white" stop-opacity="0.392157"/>
</linearGradient>
<linearGradient id="paint13_linear_34:166" x1="4.8" y1="-0.256217" x2="4.8" y2="19.2162" gradientUnits="userSpaceOnUse">
<stop stop-color="white"/>
<stop offset="0.0631645" stop-color="white" stop-opacity="0.235294"/>
<stop offset="0.950563" stop-color="white" stop-opacity="0.156863"/>
<stop offset="1" stop-color="white" stop-opacity="0.392157"/>
</linearGradient>
<linearGradient id="paint14_linear_34:166" x1="4.8" y1="-0.191352" x2="4.8" y2="14.3514" gradientUnits="userSpaceOnUse">
<stop stop-color="white"/>
<stop offset="0.0631645" stop-color="white" stop-opacity="0.235294"/>
<stop offset="0.950563" stop-color="white" stop-opacity="0.156863"/>
<stop offset="1" stop-color="white" stop-opacity="0.392157"/>
</linearGradient>
<clipPath id="clip0_34:166">
<rect width="32" height="32" fill="white"/>
</clipPath>
</defs>
</svg>
