<svg width="48" height="48" viewBox="0 0 48 48" fill="none" xmlns="http://www.w3.org/2000/svg">
<g opacity="0.5">
<path opacity="0.2" d="M35.625 46.0003C35.6244 46.5307 34.182 47.0393 31.6152 47.4143C29.0484 47.7893 25.5672 48 21.9375 48C18.3078 48 14.8266 47.7893 12.2598 47.4143C9.69296 47.0393 8.25062 46.5307 8.25 46.0003C8.24969 45.7377 8.6035 45.4776 9.29123 45.2349C9.97895 44.9922 10.9871 44.7717 12.2582 44.5859C13.5292 44.4002 15.0382 44.2528 16.699 44.1523C18.3598 44.0517 20.1398 44 21.9375 44C23.7352 44 25.5152 44.0517 27.176 44.1523C28.8368 44.2528 30.3458 44.4002 31.6168 44.5859C32.8879 44.7717 33.896 44.9922 34.5838 45.2349C35.2715 45.4776 35.6253 45.7377 35.625 46.0003Z" fill="url(#paint0_radial_34:187)"/>
<g opacity="0.4">
<path opacity="0.4" d="M35.3761 45.3337H31.8397V47.0003H35.3761V45.3337Z" fill="url(#paint1_radial_34:187)"/>
<path opacity="0.4" d="M8.49887 47.0003H12.0354V45.3337H8.49887V47.0003Z" fill="url(#paint2_radial_34:187)"/>
<path opacity="0.4" d="M31.8397 45.3337H12.0354V47.0003H31.8397V45.3337Z" fill="url(#paint3_linear_34:187)"/>
</g>
<g opacity="0.4">
<path opacity="0.4" d="M35.3761 45.3337H31.8397V47.0003H35.3761V45.3337Z" fill="url(#paint4_radial_34:187)"/>
<path opacity="0.4" d="M8.49887 47.0003H12.0354V45.3337H8.49887V47.0003Z" fill="url(#paint5_radial_34:187)"/>
<path opacity="0.4" d="M31.8397 45.3337H12.0354V47.0003H31.8397V45.3337Z" fill="url(#paint6_linear_34:187)"/>
</g>
<g opacity="0.4">
<path opacity="0.4" d="M35.3761 45.3337H31.8397V47.0003H35.3761V45.3337Z" fill="url(#paint7_radial_34:187)"/>
<path opacity="0.4" d="M8.49887 47.0003H12.0354V45.3337H8.49887V47.0003Z" fill="url(#paint8_radial_34:187)"/>
<path opacity="0.4" d="M31.8397 45.3337H12.0354V47.0003H31.8397V45.3337Z" fill="url(#paint9_linear_34:187)"/>
</g>
</g>
<rect width="25.2" height="14.4" rx="3" transform="matrix(-0.965926 0.258819 0.258819 0.965926 31.8068 25.1593)" fill="#FFDC82"/>
<rect x="0.176777" y="-0.306186" width="25.7" height="14.9" rx="3.25" transform="matrix(-0.965926 0.258819 0.258819 0.965926 32.2336 25.1031)" stroke="#612F00" stroke-opacity="0.2" stroke-width="0.5"/>
<rect opacity="0.3" x="-0.353553" y="0.612372" width="24.2" height="13.4" rx="2.5" transform="matrix(-0.965926 0.258819 0.258819 0.965926 30.9533 25.2717)" stroke="url(#paint10_linear_34:187)" stroke-linecap="round" stroke-linejoin="round"/>
<rect x="0.353553" y="-0.612372" width="26.2" height="15.4" rx="3.5" transform="matrix(-0.965926 0.258819 0.258819 0.965926 32.6604 25.047)" stroke="#FF7A00" stroke-opacity="0.5"/>
<rect width="14.4" height="28.8" rx="3" transform="matrix(-0.965926 0.258819 0.258819 0.965926 28.0798 11.25)" fill="#FFBA07" fill-opacity="0.55"/>
<rect x="0.176777" y="-0.306186" width="14.9" height="29.3" rx="3.25" transform="matrix(-0.965926 0.258819 0.258819 0.965926 28.5066 11.1938)" stroke="#612F00" stroke-opacity="0.2" stroke-width="0.5"/>
<rect opacity="0.3" x="-0.353553" y="0.612372" width="13.4" height="27.8" rx="2.5" transform="matrix(-0.965926 0.258819 0.258819 0.965926 27.2263 11.3624)" stroke="url(#paint11_linear_34:187)" stroke-linecap="round" stroke-linejoin="round"/>
<rect x="0.353553" y="-0.612372" width="15.4" height="29.8" rx="3.5" transform="matrix(-0.965926 0.258819 0.258819 0.965926 28.9334 11.1376)" stroke="#B65700" stroke-opacity="0.5"/>
<rect width="25.2" height="14.4" rx="3" transform="matrix(-0.965926 0.258819 0.258819 0.965926 36.6483 1.50006)" fill="#FF7E07"/>
<rect x="0.176777" y="-0.306186" width="25.7" height="14.9" rx="3.25" transform="matrix(-0.965926 0.258819 0.258819 0.965926 37.0751 1.44387)" stroke="#612F00" stroke-opacity="0.2" stroke-width="0.5"/>
<rect opacity="0.3" x="-0.353553" y="0.612372" width="24.2" height="13.4" rx="2.5" transform="matrix(-0.965926 0.258819 0.258819 0.965926 35.7948 1.61243)" stroke="url(#paint12_linear_34:187)" stroke-linecap="round" stroke-linejoin="round"/>
<rect x="0.353553" y="-0.612372" width="26.2" height="15.4" rx="3.5" transform="matrix(-0.965926 0.258819 0.258819 0.965926 37.5019 1.38769)" stroke="#9F6000" stroke-opacity="0.9"/>
<rect width="14.4" height="28.44" rx="3" transform="matrix(-0.965926 0.258819 0.258819 0.965926 26.2163 4.29532)" fill="#FFBA07"/>
<rect x="0.176777" y="-0.306186" width="14.9" height="28.94" rx="3.25" transform="matrix(-0.965926 0.258819 0.258819 0.965926 26.6431 4.23913)" stroke="#612F00" stroke-opacity="0.2" stroke-width="0.5"/>
<rect opacity="0.3" x="-0.353553" y="0.612372" width="13.4" height="27.44" rx="2.5" transform="matrix(-0.965926 0.258819 0.258819 0.965926 25.3628 4.40769)" stroke="url(#paint13_linear_34:187)" stroke-linecap="round" stroke-linejoin="round"/>
<rect x="0.353553" y="-0.612372" width="15.4" height="29.44" rx="3.5" transform="matrix(-0.965926 0.258819 0.258819 0.965926 27.0699 4.18295)" stroke="#B65700" stroke-opacity="0.5"/>
<rect width="14.4" height="21.24" rx="3" transform="matrix(-0.965926 0.258819 0.258819 0.965926 28.0798 11.25)" fill="#FFBA07"/>
<rect x="0.176777" y="-0.306186" width="14.9" height="21.74" rx="3.25" transform="matrix(-0.965926 0.258819 0.258819 0.965926 28.5066 11.1938)" stroke="#612F00" stroke-opacity="0.2" stroke-width="0.5"/>
<rect opacity="0.3" x="-0.353553" y="0.612372" width="13.4" height="20.24" rx="2.5" transform="matrix(-0.965926 0.258819 0.258819 0.965926 27.2263 11.3624)" stroke="url(#paint14_linear_34:187)" stroke-linecap="round" stroke-linejoin="round"/>
<rect x="0.353553" y="-0.612372" width="15.4" height="22.24" rx="3.5" transform="matrix(-0.965926 0.258819 0.258819 0.965926 28.9334 11.1376)" stroke="#B65700" stroke-opacity="0.5"/>
<defs>
<radialGradient id="paint0_radial_34:187" cx="0" cy="0" r="1" gradientUnits="userSpaceOnUse" gradientTransform="translate(21.9375 46.0003) scale(13.6875 2)">
<stop/>
<stop offset="1" stop-opacity="0"/>
</radialGradient>
<radialGradient id="paint1_radial_34:187" cx="0" cy="0" r="1" gradientUnits="userSpaceOnUse" gradientTransform="translate(31.8347 46.167) scale(3.54318 0.833333)">
<stop stop-color="#181818"/>
<stop offset="1" stop-color="#181818" stop-opacity="0"/>
</radialGradient>
<radialGradient id="paint2_radial_34:187" cx="0" cy="0" r="1" gradientUnits="userSpaceOnUse" gradientTransform="translate(12.0403 46.167) rotate(180) scale(3.54317 0.833333)">
<stop stop-color="#181818"/>
<stop offset="1" stop-color="#181818" stop-opacity="0"/>
</radialGradient>
<linearGradient id="paint3_linear_34:187" x1="22.6859" y1="47.0069" x2="22.6859" y2="45.3335" gradientUnits="userSpaceOnUse">
<stop stop-color="#181818" stop-opacity="0"/>
<stop offset="0.5" stop-color="#181818"/>
<stop offset="1" stop-color="#181818" stop-opacity="0"/>
</linearGradient>
<radialGradient id="paint4_radial_34:187" cx="0" cy="0" r="1" gradientUnits="userSpaceOnUse" gradientTransform="translate(31.8347 46.167) scale(3.54318 0.833333)">
<stop stop-color="#181818"/>
<stop offset="1" stop-color="#181818" stop-opacity="0"/>
</radialGradient>
<radialGradient id="paint5_radial_34:187" cx="0" cy="0" r="1" gradientUnits="userSpaceOnUse" gradientTransform="translate(12.0403 46.167) rotate(180) scale(3.54317 0.833333)">
<stop stop-color="#181818"/>
<stop offset="1" stop-color="#181818" stop-opacity="0"/>
</radialGradient>
<linearGradient id="paint6_linear_34:187" x1="22.6859" y1="47.0069" x2="22.6859" y2="45.3335" gradientUnits="userSpaceOnUse">
<stop stop-color="#181818" stop-opacity="0"/>
<stop offset="0.5" stop-color="#181818"/>
<stop offset="1" stop-color="#181818" stop-opacity="0"/>
</linearGradient>
<radialGradient id="paint7_radial_34:187" cx="0" cy="0" r="1" gradientUnits="userSpaceOnUse" gradientTransform="translate(31.8347 46.167) scale(3.54318 0.833333)">
<stop stop-color="#181818"/>
<stop offset="1" stop-color="#181818" stop-opacity="0"/>
</radialGradient>
<radialGradient id="paint8_radial_34:187" cx="0" cy="0" r="1" gradientUnits="userSpaceOnUse" gradientTransform="translate(12.0403 46.167) rotate(180) scale(3.54317 0.833333)">
<stop stop-color="#181818"/>
<stop offset="1" stop-color="#181818" stop-opacity="0"/>
</radialGradient>
<linearGradient id="paint9_linear_34:187" x1="22.6859" y1="47.0069" x2="22.6859" y2="45.3335" gradientUnits="userSpaceOnUse">
<stop stop-color="#181818" stop-opacity="0"/>
<stop offset="0.5" stop-color="#181818"/>
<stop offset="1" stop-color="#181818" stop-opacity="0"/>
</linearGradient>
<linearGradient id="paint10_linear_34:187" x1="12.6" y1="-0.194595" x2="12.6" y2="14.5946" gradientUnits="userSpaceOnUse">
<stop stop-color="white"/>
<stop offset="0.0631645" stop-color="white" stop-opacity="0.235294"/>
<stop offset="0.950563" stop-color="white" stop-opacity="0.156863"/>
<stop offset="1" stop-color="white" stop-opacity="0.392157"/>
</linearGradient>
<linearGradient id="paint11_linear_34:187" x1="7.2" y1="-0.38919" x2="7.2" y2="29.1892" gradientUnits="userSpaceOnUse">
<stop stop-color="white"/>
<stop offset="0.0631645" stop-color="white" stop-opacity="0.235294"/>
<stop offset="0.950563" stop-color="white" stop-opacity="0.156863"/>
<stop offset="1" stop-color="white" stop-opacity="0.392157"/>
</linearGradient>
<linearGradient id="paint12_linear_34:187" x1="12.6" y1="-0.194595" x2="12.6" y2="14.5946" gradientUnits="userSpaceOnUse">
<stop stop-color="white"/>
<stop offset="0.0631645" stop-color="white" stop-opacity="0.235294"/>
<stop offset="0.950563" stop-color="white" stop-opacity="0.156863"/>
<stop offset="1" stop-color="white" stop-opacity="0.392157"/>
</linearGradient>
<linearGradient id="paint13_linear_34:187" x1="7.2" y1="-0.384325" x2="7.2" y2="28.8243" gradientUnits="userSpaceOnUse">
<stop stop-color="white"/>
<stop offset="0.0631645" stop-color="white" stop-opacity="0.235294"/>
<stop offset="0.950563" stop-color="white" stop-opacity="0.156863"/>
<stop offset="1" stop-color="white" stop-opacity="0.392157"/>
</linearGradient>
<linearGradient id="paint14_linear_34:187" x1="7.2" y1="-0.287028" x2="7.2" y2="21.527" gradientUnits="userSpaceOnUse">
<stop stop-color="white"/>
<stop offset="0.0631645" stop-color="white" stop-opacity="0.235294"/>
<stop offset="0.950563" stop-color="white" stop-opacity="0.156863"/>
<stop offset="1" stop-color="white" stop-opacity="0.392157"/>
</linearGradient>
</defs>
</svg>
