<svg width="64" height="64" viewBox="0 0 64 64" fill="none" xmlns="http://www.w3.org/2000/svg">
<g opacity="0.5">
<path opacity="0.2" d="M47 60C46.9992 60.7956 45.1024 61.5585 41.7268 62.121C38.3513 62.6835 33.7734 62.9995 29 62.9995C24.2266 62.9995 19.6487 62.6835 16.2732 62.121C12.8976 61.5585 11.0008 60.7956 11 60C10.9996 59.606 11.4649 59.2158 12.3693 58.8518C13.2737 58.4877 14.5995 58.157 16.271 57.8783C17.9425 57.5997 19.9269 57.3787 22.111 57.2279C24.295 57.0771 26.6359 56.9995 29 56.9995C31.3641 56.9995 33.705 57.0771 35.889 57.2279C38.0731 57.3787 40.0575 57.5997 41.729 57.8783C43.4005 58.157 44.7263 58.4877 45.6307 58.8518C46.5351 59.2158 47.0004 59.606 47 60Z" fill="url(#paint0_radial_34:208)"/>
<g opacity="0.4">
<path opacity="0.4" d="M46.6727 59H42.022V61.5H46.6727V59Z" fill="url(#paint1_radial_34:208)"/>
<path opacity="0.4" d="M11.3273 61.5H15.978V59H11.3273V61.5Z" fill="url(#paint2_radial_34:208)"/>
<path opacity="0.4" d="M42.022 59H15.978V61.5H42.022V59Z" fill="url(#paint3_linear_34:208)"/>
</g>
<g opacity="0.4">
<path opacity="0.4" d="M46.6727 59H42.022V61.5H46.6727V59Z" fill="url(#paint4_radial_34:208)"/>
<path opacity="0.4" d="M11.3273 61.5H15.978V59H11.3273V61.5Z" fill="url(#paint5_radial_34:208)"/>
<path opacity="0.4" d="M42.022 59H15.978V61.5H42.022V59Z" fill="url(#paint6_linear_34:208)"/>
</g>
<g opacity="0.4">
<path opacity="0.4" d="M46.6727 59H42.022V61.5H46.6727V59Z" fill="url(#paint7_radial_34:208)"/>
<path opacity="0.4" d="M11.3273 61.5H15.978V59H11.3273V61.5Z" fill="url(#paint8_radial_34:208)"/>
<path opacity="0.4" d="M42.022 59H15.978V61.5H42.022V59Z" fill="url(#paint9_linear_34:208)"/>
</g>
</g>
<rect width="33.6" height="19.2" rx="4" transform="matrix(-0.965926 0.258819 0.258819 0.965926 42.4091 33.2124)" fill="#FFDC82"/>
<rect x="0.176777" y="-0.306186" width="34.1" height="19.7" rx="4.25" transform="matrix(-0.965926 0.258819 0.258819 0.965926 42.8359 33.1562)" stroke="#612F00" stroke-opacity="0.2" stroke-width="0.5"/>
<rect opacity="0.3" x="-0.353553" y="0.612372" width="32.6" height="18.2" rx="3.5" transform="matrix(-0.965926 0.258819 0.258819 0.965926 41.5555 33.3248)" stroke="url(#paint10_linear_34:208)" stroke-linecap="round" stroke-linejoin="round"/>
<rect x="0.353553" y="-0.612372" width="34.6" height="20.2" rx="4.5" transform="matrix(-0.965926 0.258819 0.258819 0.965926 43.2626 33.1001)" stroke="#FF7A00" stroke-opacity="0.5"/>
<rect width="19.2" height="38.4" rx="4" transform="matrix(-0.965926 0.258819 0.258819 0.965926 37.4398 14.6667)" fill="#FFBA07" fill-opacity="0.55"/>
<rect x="0.176777" y="-0.306186" width="19.7" height="38.9" rx="4.25" transform="matrix(-0.965926 0.258819 0.258819 0.965926 37.8666 14.6105)" stroke="#612F00" stroke-opacity="0.2" stroke-width="0.5"/>
<rect opacity="0.3" x="-0.353553" y="0.612372" width="18.2" height="37.4" rx="3.5" transform="matrix(-0.965926 0.258819 0.258819 0.965926 36.5862 14.779)" stroke="url(#paint11_linear_34:208)" stroke-linecap="round" stroke-linejoin="round"/>
<rect x="0.353553" y="-0.612372" width="20.2" height="39.4" rx="4.5" transform="matrix(-0.965926 0.258819 0.258819 0.965926 38.2933 14.5543)" stroke="#B65700" stroke-opacity="0.5"/>
<rect width="33.6" height="19.2" rx="4" transform="matrix(-0.965926 0.258819 0.258819 0.965926 48.8644 1.66678)" fill="#FF7E07"/>
<rect x="0.176777" y="-0.306186" width="34.1" height="19.7" rx="4.25" transform="matrix(-0.965926 0.258819 0.258819 0.965926 49.2912 1.61059)" stroke="#612F00" stroke-opacity="0.2" stroke-width="0.5"/>
<rect opacity="0.3" x="-0.353553" y="0.612372" width="32.6" height="18.2" rx="3.5" transform="matrix(-0.965926 0.258819 0.258819 0.965926 48.0109 1.77915)" stroke="url(#paint12_linear_34:208)" stroke-linecap="round" stroke-linejoin="round"/>
<rect x="0.353553" y="-0.612372" width="34.6" height="20.2" rx="4.5" transform="matrix(-0.965926 0.258819 0.258819 0.965926 49.718 1.55441)" stroke="#9F6000" stroke-opacity="0.9"/>
<rect width="19.2" height="37.92" rx="4" transform="matrix(-0.965926 0.258819 0.258819 0.965926 34.9551 5.3938)" fill="#FFBA07"/>
<rect x="0.176777" y="-0.306186" width="19.7" height="38.42" rx="4.25" transform="matrix(-0.965926 0.258819 0.258819 0.965926 35.3819 5.33761)" stroke="#612F00" stroke-opacity="0.2" stroke-width="0.5"/>
<rect opacity="0.3" x="-0.353553" y="0.612372" width="18.2" height="36.92" rx="3.5" transform="matrix(-0.965926 0.258819 0.258819 0.965926 34.1016 5.50617)" stroke="url(#paint13_linear_34:208)" stroke-linecap="round" stroke-linejoin="round"/>
<rect x="0.353553" y="-0.612372" width="20.2" height="38.92" rx="4.5" transform="matrix(-0.965926 0.258819 0.258819 0.965926 35.8087 5.28143)" stroke="#B65700" stroke-opacity="0.5"/>
<rect width="19.2" height="28.32" rx="4" transform="matrix(-0.965926 0.258819 0.258819 0.965926 37.4398 14.6667)" fill="#FFBA07"/>
<rect x="0.176777" y="-0.306186" width="19.7" height="28.82" rx="4.25" transform="matrix(-0.965926 0.258819 0.258819 0.965926 37.8666 14.6105)" stroke="#612F00" stroke-opacity="0.2" stroke-width="0.5"/>
<rect opacity="0.3" x="-0.353553" y="0.612372" width="18.2" height="27.32" rx="3.5" transform="matrix(-0.965926 0.258819 0.258819 0.965926 36.5862 14.779)" stroke="url(#paint14_linear_34:208)" stroke-linecap="round" stroke-linejoin="round"/>
<rect x="0.353553" y="-0.612372" width="20.2" height="29.32" rx="4.5" transform="matrix(-0.965926 0.258819 0.258819 0.965926 38.2933 14.5543)" stroke="#B65700" stroke-opacity="0.5"/>
<defs>
<radialGradient id="paint0_radial_34:208" cx="0" cy="0" r="1" gradientUnits="userSpaceOnUse" gradientTransform="translate(29 60) scale(18 3)">
<stop/>
<stop offset="1" stop-opacity="0"/>
</radialGradient>
<radialGradient id="paint1_radial_34:208" cx="0" cy="0" r="1" gradientUnits="userSpaceOnUse" gradientTransform="translate(42.0155 60.25) scale(4.65952 1.25)">
<stop stop-color="#181818"/>
<stop offset="1" stop-color="#181818" stop-opacity="0"/>
</radialGradient>
<radialGradient id="paint2_radial_34:208" cx="0" cy="0" r="1" gradientUnits="userSpaceOnUse" gradientTransform="translate(15.9845 60.25) rotate(180) scale(4.65952 1.25)">
<stop stop-color="#181818"/>
<stop offset="1" stop-color="#181818" stop-opacity="0"/>
</radialGradient>
<linearGradient id="paint3_linear_34:208" x1="29.9842" y1="61.5099" x2="29.9842" y2="58.9998" gradientUnits="userSpaceOnUse">
<stop stop-color="#181818" stop-opacity="0"/>
<stop offset="0.5" stop-color="#181818"/>
<stop offset="1" stop-color="#181818" stop-opacity="0"/>
</linearGradient>
<radialGradient id="paint4_radial_34:208" cx="0" cy="0" r="1" gradientUnits="userSpaceOnUse" gradientTransform="translate(42.0155 60.25) scale(4.65952 1.25)">
<stop stop-color="#181818"/>
<stop offset="1" stop-color="#181818" stop-opacity="0"/>
</radialGradient>
<radialGradient id="paint5_radial_34:208" cx="0" cy="0" r="1" gradientUnits="userSpaceOnUse" gradientTransform="translate(15.9845 60.25) rotate(180) scale(4.65952 1.25)">
<stop stop-color="#181818"/>
<stop offset="1" stop-color="#181818" stop-opacity="0"/>
</radialGradient>
<linearGradient id="paint6_linear_34:208" x1="29.9842" y1="61.5099" x2="29.9842" y2="58.9998" gradientUnits="userSpaceOnUse">
<stop stop-color="#181818" stop-opacity="0"/>
<stop offset="0.5" stop-color="#181818"/>
<stop offset="1" stop-color="#181818" stop-opacity="0"/>
</linearGradient>
<radialGradient id="paint7_radial_34:208" cx="0" cy="0" r="1" gradientUnits="userSpaceOnUse" gradientTransform="translate(42.0155 60.25) scale(4.65952 1.25)">
<stop stop-color="#181818"/>
<stop offset="1" stop-color="#181818" stop-opacity="0"/>
</radialGradient>
<radialGradient id="paint8_radial_34:208" cx="0" cy="0" r="1" gradientUnits="userSpaceOnUse" gradientTransform="translate(15.9845 60.25) rotate(180) scale(4.65952 1.25)">
<stop stop-color="#181818"/>
<stop offset="1" stop-color="#181818" stop-opacity="0"/>
</radialGradient>
<linearGradient id="paint9_linear_34:208" x1="29.9842" y1="61.5099" x2="29.9842" y2="58.9998" gradientUnits="userSpaceOnUse">
<stop stop-color="#181818" stop-opacity="0"/>
<stop offset="0.5" stop-color="#181818"/>
<stop offset="1" stop-color="#181818" stop-opacity="0"/>
</linearGradient>
<linearGradient id="paint10_linear_34:208" x1="16.8" y1="-0.25946" x2="16.8" y2="19.4595" gradientUnits="userSpaceOnUse">
<stop stop-color="white"/>
<stop offset="0.0631645" stop-color="white" stop-opacity="0.235294"/>
<stop offset="0.950563" stop-color="white" stop-opacity="0.156863"/>
<stop offset="1" stop-color="white" stop-opacity="0.392157"/>
</linearGradient>
<linearGradient id="paint11_linear_34:208" x1="9.6" y1="-0.51892" x2="9.6" y2="38.9189" gradientUnits="userSpaceOnUse">
<stop stop-color="white"/>
<stop offset="0.0631645" stop-color="white" stop-opacity="0.235294"/>
<stop offset="0.950563" stop-color="white" stop-opacity="0.156863"/>
<stop offset="1" stop-color="white" stop-opacity="0.392157"/>
</linearGradient>
<linearGradient id="paint12_linear_34:208" x1="16.8" y1="-0.25946" x2="16.8" y2="19.4595" gradientUnits="userSpaceOnUse">
<stop stop-color="white"/>
<stop offset="0.0631645" stop-color="white" stop-opacity="0.235294"/>
<stop offset="0.950563" stop-color="white" stop-opacity="0.156863"/>
<stop offset="1" stop-color="white" stop-opacity="0.392157"/>
</linearGradient>
<linearGradient id="paint13_linear_34:208" x1="9.6" y1="-0.512433" x2="9.6" y2="38.4324" gradientUnits="userSpaceOnUse">
<stop stop-color="white"/>
<stop offset="0.0631645" stop-color="white" stop-opacity="0.235294"/>
<stop offset="0.950563" stop-color="white" stop-opacity="0.156863"/>
<stop offset="1" stop-color="white" stop-opacity="0.392157"/>
</linearGradient>
<linearGradient id="paint14_linear_34:208" x1="9.6" y1="-0.382703" x2="9.6" y2="28.7027" gradientUnits="userSpaceOnUse">
<stop stop-color="white"/>
<stop offset="0.0631645" stop-color="white" stop-opacity="0.235294"/>
<stop offset="0.950563" stop-color="white" stop-opacity="0.156863"/>
<stop offset="1" stop-color="white" stop-opacity="0.392157"/>
</linearGradient>
</defs>
</svg>
