<?xml version="1.0" encoding="UTF-8" standalone="no"?>
<svg
   xmlns:dc="http://purl.org/dc/elements/1.1/"
   xmlns:cc="http://creativecommons.org/ns#"
   xmlns:rdf="http://www.w3.org/1999/02/22-rdf-syntax-ns#"
   xmlns:svg="http://www.w3.org/2000/svg"
   xmlns="http://www.w3.org/2000/svg"
   xmlns:sodipodi="http://sodipodi.sourceforge.net/DTD/sodipodi-0.dtd"
   xmlns:inkscape="http://www.inkscape.org/namespaces/inkscape"
   width="48"
   height="48"
   viewBox="0 0 48 48"
   fill="none"
   version="1.1"
   id="svg6"
   sodipodi:docname="com.github.hezral.shortcuts.svg"
   inkscape:version="1.0.2 (e86c870879, 2021-01-15)">
  <metadata
     id="metadata12">
    <rdf:RDF>
      <cc:Work
         rdf:about="">
        <dc:format>image/svg+xml</dc:format>
        <dc:type
           rdf:resource="http://purl.org/dc/dcmitype/StillImage" />
      </cc:Work>
    </rdf:RDF>
  </metadata>
  <defs
     id="defs10">
    <radialGradient
       id="paint0_radial"
       cx="0"
       cy="0"
       r="1"
       gradientUnits="userSpaceOnUse"
       gradientTransform="matrix(4.00757,0,0,1.5,29.9944,44.5)">
      <stop
         stop-color="#181818"
         id="stop47" />
      <stop
         offset="1"
         stop-color="#181818"
         stop-opacity="0"
         id="stop49" />
    </radialGradient>
    <radialGradient
       id="paint1_radial"
       cx="0"
       cy="0"
       r="1"
       gradientUnits="userSpaceOnUse"
       gradientTransform="matrix(-4.00757,0,0,-1.5,6.00562,44.5)">
      <stop
         stop-color="#181818"
         id="stop52" />
      <stop
         offset="1"
         stop-color="#181818"
         stop-opacity="0"
         id="stop54" />
    </radialGradient>
    <linearGradient
       id="paint2_linear"
       x1="18.9069"
       y1="46.011902"
       x2="18.9069"
       y2="42.999802"
       gradientUnits="userSpaceOnUse">
      <stop
         stop-color="#181818"
         stop-opacity="0"
         id="stop57" />
      <stop
         offset="0.5"
         stop-color="#181818"
         id="stop59" />
      <stop
         offset="1"
         stop-color="#181818"
         stop-opacity="0"
         id="stop61" />
    </linearGradient>
    <filter
       inkscape:collect="always"
       style="color-interpolation-filters:sRGB"
       id="filter893"
       x="-0.0017636335"
       width="1.0035273"
       y="-0.01881209"
       height="1.0376242">
      <feGaussianBlur
         inkscape:collect="always"
         stdDeviation="0.023515113"
         id="feGaussianBlur895" />
    </filter>
  </defs>
  <sodipodi:namedview
     pagecolor="#ffffff"
     bordercolor="#666666"
     borderopacity="1"
     objecttolerance="10"
     gridtolerance="10"
     guidetolerance="10"
     inkscape:pageopacity="0"
     inkscape:pageshadow="2"
     inkscape:window-width="2048"
     inkscape:window-height="1181"
     id="namedview8"
     showgrid="false"
     inkscape:zoom="32"
     inkscape:cx="26.485061"
     inkscape:cy="38.4649"
     inkscape:window-x="0"
     inkscape:window-y="30"
     inkscape:window-maximized="1"
     inkscape:current-layer="svg6">
    <inkscape:grid
       type="xygrid"
       id="grid875" />
  </sodipodi:namedview>
  <g
     opacity="0.8"
     id="g8"
     transform="matrix(1.1875,0,0,1,2.625,-3)"
     style="stroke-width:0.917663;opacity:1;filter:url(#filter893)">
    <path
       opacity="0.4"
       d="m 34,43 h -4 v 3 h 4 z"
       fill="url(#paint0_radial)"
       id="path2"
       style="fill:url(#paint0_radial);stroke-width:0.865181" />
    <path
       opacity="0.4"
       d="M 2,46 H 6 V 43 H 2 Z"
       fill="url(#paint1_radial)"
       id="path4-3"
       style="fill:url(#paint1_radial);stroke-width:0.865181" />
    <path
       opacity="0.4"
       d="M 30,43 H 6 v 3 h 24 z"
       fill="url(#paint2_linear)"
       id="path6"
       style="fill:url(#paint2_linear);stroke-width:0.865181" />
  </g>
  <rect
     x="6.5"
     y="6.5"
     width="35"
     height="35"
     rx="4.5"
     fill="#FAFAFA"
     stroke="#979797"
     id="rect2"
     style="fill:#fafafa;fill-opacity:1" />
  <path
     fill-rule="evenodd"
     clip-rule="evenodd"
     d="M18 13C20.7614 13 23 15.2386 23 18V20L25 20V18C25 15.2386 27.2386 13 30 13C32.7614 13 35 15.2386 35 18C35 20.7614 32.7614 23 30 23H28V25H30C32.7614 25 35 27.2386 35 30C35 32.7614 32.7614 35 30 35C27.2386 35 25 32.7614 25 30V28L23 28V30C23 32.7614 20.7614 35 18 35C15.2386 35 13 32.7614 13 30C13 27.2386 15.2386 25 18 25H20V23H18.0031L18 23C15.2386 23 13 20.7614 13 18C13 15.2386 15.2386 13 18 13ZM30 28H28V30C28 31.1046 28.8954 32 30 32C31.1046 32 32 31.1046 32 30C32 28.8954 31.1046 28 30 28ZM32 18C32 19.1046 31.1046 20 30 20H28V18C28 16.8954 28.8954 16 30 16C31.1046 16 32 16.8954 32 18ZM20 30V28H18C16.8954 28 16 28.8954 16 30C16 31.1046 16.8954 32 18 32C19.1046 32 20 31.1046 20 30ZM18 16C19.1046 16 20 16.8954 20 18V20H18C16.8954 20 16 19.1046 16 18C16 16.8954 16.8954 16 18 16ZM25 25V23L23 23V25L25 25Z"
     fill="#333333"
     id="path4" />
</svg>
