<svg width="48" height="48" viewBox="0 0 48 48" fill="none" xmlns="http://www.w3.org/2000/svg">
<g opacity="0.4">
<path opacity="0.4" d="M35.9999 43H32.842V45H35.9999V43Z" fill="url(#paint0_radial)"/>
<path opacity="0.4" d="M11.9998 45H15.1577V43H11.9998V45Z" fill="url(#paint1_radial)"/>
<path opacity="0.4" d="M32.8419 43H15.1577V45H32.8419V43Z" fill="url(#paint2_linear)"/>
</g>
<g opacity="0.4">
<path opacity="0.4" d="M36.0002 42H32.8423V46H36.0002V42Z" fill="url(#paint3_radial)"/>
<path opacity="0.4" d="M11.9998 46H15.1577V42H11.9998V46Z" fill="url(#paint4_radial)"/>
<path opacity="0.4" d="M32.8422 42H15.158V46H32.8422V42Z" fill="url(#paint5_linear)"/>
</g>
<path d="M13.8333 4.5H34.1667C34.8333 4.5 35.42 4.94 35.6067 5.58L37.3333 11.5H10.6667L12.3933 5.58C12.58 4.94 13.1667 4.5 13.8333 4.5Z" fill="url(#paint6_linear)" stroke="#979797"/>
<path d="M31.6204 43.5H16.3796C15.6402 43.5 15.0111 42.9612 14.8974 42.2306L10.5838 14.5L37.4162 14.5L33.1026 42.2306C32.9889 42.9612 32.3598 43.5 31.6204 43.5Z" fill="url(#paint7_linear)" stroke="#565656"/>
<path d="M33.9723 35.5L14.0275 35.5C13.2943 35.5 12.6685 34.9699 12.5479 34.2466L10.8813 24.2466C10.7289 23.3323 11.4339 22.5 12.3608 22.5L35.639 22.5C36.5659 22.5 37.271 23.3323 37.1186 24.2466L35.4519 34.2466C35.3314 34.9699 34.7056 35.5 33.9723 35.5Z" fill="url(#paint8_linear)" stroke="#A34848"/>
<path d="M8.5 12C8.5 11.1716 9.17157 10.5 10 10.5H38C38.8284 10.5 39.5 11.1716 39.5 12V16C39.5 16.8284 38.8284 17.5 38 17.5H10C9.17157 17.5 8.5 16.8284 8.5 16V12Z" fill="url(#paint9_linear)" stroke="#979797"/>
<defs>
<radialGradient id="paint0_radial" cx="0" cy="0" r="1" gradientUnits="userSpaceOnUse" gradientTransform="translate(32.8376 44) scale(3.16387 1)">
<stop stop-color="#181818"/>
<stop offset="1" stop-color="#181818" stop-opacity="0"/>
</radialGradient>
<radialGradient id="paint1_radial" cx="0" cy="0" r="1" gradientUnits="userSpaceOnUse" gradientTransform="translate(15.1621 44) rotate(180) scale(3.16387 1)">
<stop stop-color="#181818"/>
<stop offset="1" stop-color="#181818" stop-opacity="0"/>
</radialGradient>
<linearGradient id="paint2_linear" x1="24.6681" y1="45.0079" x2="24.6681" y2="42.9998" gradientUnits="userSpaceOnUse">
<stop stop-color="#181818" stop-opacity="0"/>
<stop offset="0.5" stop-color="#181818"/>
<stop offset="1" stop-color="#181818" stop-opacity="0"/>
</linearGradient>
<radialGradient id="paint3_radial" cx="0" cy="0" r="1" gradientUnits="userSpaceOnUse" gradientTransform="translate(32.8379 44) scale(3.16387 2)">
<stop stop-color="#181818"/>
<stop offset="1" stop-color="#181818" stop-opacity="0"/>
</radialGradient>
<radialGradient id="paint4_radial" cx="0" cy="0" r="1" gradientUnits="userSpaceOnUse" gradientTransform="translate(15.1621 44) rotate(180) scale(3.16387 2)">
<stop stop-color="#181818"/>
<stop offset="1" stop-color="#181818" stop-opacity="0"/>
</radialGradient>
<linearGradient id="paint5_linear" x1="24.6683" y1="46.0158" x2="24.6683" y2="41.9997" gradientUnits="userSpaceOnUse">
<stop stop-color="#181818" stop-opacity="0"/>
<stop offset="0.5" stop-color="#181818"/>
<stop offset="1" stop-color="#181818" stop-opacity="0"/>
</linearGradient>
<linearGradient id="paint6_linear" x1="11.75" y1="8" x2="24.875" y2="8" gradientUnits="userSpaceOnUse">
<stop stop-color="#C7BDAE"/>
<stop offset="1" stop-color="white"/>
</linearGradient>
<linearGradient id="paint7_linear" x1="25" y1="22" x2="12" y2="22" gradientUnits="userSpaceOnUse">
<stop stop-color="#CEACA4"/>
<stop offset="1" stop-color="#9A807A"/>
</linearGradient>
<linearGradient id="paint8_linear" x1="24.9999" y1="24" x2="9.99992" y2="24" gradientUnits="userSpaceOnUse">
<stop stop-color="#E46D5F"/>
<stop offset="1" stop-color="#B44639"/>
</linearGradient>
<linearGradient id="paint9_linear" x1="10" y1="14" x2="25" y2="14" gradientUnits="userSpaceOnUse">
<stop stop-color="#C7BDAE"/>
<stop offset="1" stop-color="white"/>
</linearGradient>
</defs>
</svg>
